<mxfile host="app.diagrams.net" modified="2021-09-15T08:01:50.065Z" agent="5.0 (Windows NT 10.0; Win64; x64) AppleWebKit/537.36 (KHTML, like Gecko) Chrome/92.0.4515.131 Safari/537.36 OPR/78.0.4093.186" etag="rMWg90gwQZB-2A1GyYYz" version="15.2.7" type="github">
  <diagram id="yOKVG3dJL8Ef6HxWUau5" name="Page-1">
    <mxGraphModel dx="2231" dy="805" grid="1" gridSize="10" guides="1" tooltips="1" connect="1" arrows="1" fold="1" page="1" pageScale="1" pageWidth="850" pageHeight="1100" math="0" shadow="0">
      <root>
        <mxCell id="0" />
        <mxCell id="1" parent="0" />
        <mxCell id="g_ZjbpEFmkkc0fWu4OdP-3" value="" style="edgeStyle=orthogonalEdgeStyle;rounded=0;orthogonalLoop=1;jettySize=auto;html=1;" edge="1" parent="1" source="g_ZjbpEFmkkc0fWu4OdP-1" target="g_ZjbpEFmkkc0fWu4OdP-2">
          <mxGeometry relative="1" as="geometry" />
        </mxCell>
        <mxCell id="g_ZjbpEFmkkc0fWu4OdP-7" value="" style="edgeStyle=orthogonalEdgeStyle;rounded=0;orthogonalLoop=1;jettySize=auto;html=1;" edge="1" parent="1" source="g_ZjbpEFmkkc0fWu4OdP-1" target="g_ZjbpEFmkkc0fWu4OdP-6">
          <mxGeometry relative="1" as="geometry" />
        </mxCell>
        <mxCell id="g_ZjbpEFmkkc0fWu4OdP-1" value="game start" style="rounded=0;whiteSpace=wrap;html=1;" vertex="1" parent="1">
          <mxGeometry x="360" width="120" height="60" as="geometry" />
        </mxCell>
        <mxCell id="g_ZjbpEFmkkc0fWu4OdP-9" value="" style="edgeStyle=orthogonalEdgeStyle;rounded=0;orthogonalLoop=1;jettySize=auto;html=1;" edge="1" parent="1" source="g_ZjbpEFmkkc0fWu4OdP-2" target="g_ZjbpEFmkkc0fWu4OdP-8">
          <mxGeometry relative="1" as="geometry" />
        </mxCell>
        <mxCell id="g_ZjbpEFmkkc0fWu4OdP-11" value="" style="edgeStyle=orthogonalEdgeStyle;rounded=0;orthogonalLoop=1;jettySize=auto;html=1;" edge="1" parent="1" source="g_ZjbpEFmkkc0fWu4OdP-2" target="g_ZjbpEFmkkc0fWu4OdP-10">
          <mxGeometry relative="1" as="geometry" />
        </mxCell>
        <mxCell id="g_ZjbpEFmkkc0fWu4OdP-2" value="ga je tegen het verhaal in werken of gewoon leuk meedoen?" style="whiteSpace=wrap;html=1;rounded=0;" vertex="1" parent="1">
          <mxGeometry x="360" y="140" width="120" height="60" as="geometry" />
        </mxCell>
        <mxCell id="g_ZjbpEFmkkc0fWu4OdP-36" value="" style="edgeStyle=orthogonalEdgeStyle;rounded=0;orthogonalLoop=1;jettySize=auto;html=1;" edge="1" parent="1" source="g_ZjbpEFmkkc0fWu4OdP-6" target="g_ZjbpEFmkkc0fWu4OdP-35">
          <mxGeometry relative="1" as="geometry" />
        </mxCell>
        <mxCell id="g_ZjbpEFmkkc0fWu4OdP-6" value="het herrinnerd dat je al hebt gespeeld" style="whiteSpace=wrap;html=1;rounded=0;" vertex="1" parent="1">
          <mxGeometry x="560" width="120" height="60" as="geometry" />
        </mxCell>
        <mxCell id="g_ZjbpEFmkkc0fWu4OdP-15" value="" style="edgeStyle=orthogonalEdgeStyle;rounded=0;orthogonalLoop=1;jettySize=auto;html=1;" edge="1" parent="1" source="g_ZjbpEFmkkc0fWu4OdP-8" target="g_ZjbpEFmkkc0fWu4OdP-14">
          <mxGeometry relative="1" as="geometry" />
        </mxCell>
        <mxCell id="g_ZjbpEFmkkc0fWu4OdP-17" value="" style="edgeStyle=orthogonalEdgeStyle;rounded=0;orthogonalLoop=1;jettySize=auto;html=1;" edge="1" parent="1" source="g_ZjbpEFmkkc0fWu4OdP-8" target="g_ZjbpEFmkkc0fWu4OdP-16">
          <mxGeometry relative="1" as="geometry" />
        </mxCell>
        <mxCell id="g_ZjbpEFmkkc0fWu4OdP-8" value="je gaat tegen het verhaal in en hij (pc) raakt geirriteerd" style="whiteSpace=wrap;html=1;rounded=0;" vertex="1" parent="1">
          <mxGeometry x="160" y="140" width="120" height="60" as="geometry" />
        </mxCell>
        <mxCell id="g_ZjbpEFmkkc0fWu4OdP-13" value="" style="edgeStyle=orthogonalEdgeStyle;rounded=0;orthogonalLoop=1;jettySize=auto;html=1;" edge="1" parent="1" source="g_ZjbpEFmkkc0fWu4OdP-10" target="g_ZjbpEFmkkc0fWu4OdP-12">
          <mxGeometry relative="1" as="geometry" />
        </mxCell>
        <mxCell id="g_ZjbpEFmkkc0fWu4OdP-10" value="je speelt met het verhaal mee" style="whiteSpace=wrap;html=1;rounded=0;" vertex="1" parent="1">
          <mxGeometry x="560" y="140" width="120" height="60" as="geometry" />
        </mxCell>
        <mxCell id="g_ZjbpEFmkkc0fWu4OdP-12" value="de game &quot;crashed&quot;" style="whiteSpace=wrap;html=1;rounded=0;" vertex="1" parent="1">
          <mxGeometry x="560" y="280" width="120" height="60" as="geometry" />
        </mxCell>
        <mxCell id="g_ZjbpEFmkkc0fWu4OdP-19" value="" style="edgeStyle=orthogonalEdgeStyle;rounded=0;orthogonalLoop=1;jettySize=auto;html=1;" edge="1" parent="1" source="g_ZjbpEFmkkc0fWu4OdP-14" target="g_ZjbpEFmkkc0fWu4OdP-18">
          <mxGeometry relative="1" as="geometry" />
        </mxCell>
        <mxCell id="g_ZjbpEFmkkc0fWu4OdP-22" value="" style="edgeStyle=orthogonalEdgeStyle;rounded=0;orthogonalLoop=1;jettySize=auto;html=1;" edge="1" parent="1" source="g_ZjbpEFmkkc0fWu4OdP-14" target="g_ZjbpEFmkkc0fWu4OdP-21">
          <mxGeometry relative="1" as="geometry" />
        </mxCell>
        <mxCell id="g_ZjbpEFmkkc0fWu4OdP-14" value="je gaat je nu opeens wel gedragen" style="whiteSpace=wrap;html=1;rounded=0;" vertex="1" parent="1">
          <mxGeometry x="160" y="280" width="120" height="60" as="geometry" />
        </mxCell>
        <mxCell id="g_ZjbpEFmkkc0fWu4OdP-42" value="" style="edgeStyle=orthogonalEdgeStyle;rounded=0;orthogonalLoop=1;jettySize=auto;html=1;" edge="1" parent="1" source="g_ZjbpEFmkkc0fWu4OdP-16" target="g_ZjbpEFmkkc0fWu4OdP-41">
          <mxGeometry relative="1" as="geometry" />
        </mxCell>
        <mxCell id="g_ZjbpEFmkkc0fWu4OdP-16" value="hij word sentient en word boos" style="whiteSpace=wrap;html=1;rounded=0;" vertex="1" parent="1">
          <mxGeometry x="-40" y="140" width="120" height="60" as="geometry" />
        </mxCell>
        <mxCell id="g_ZjbpEFmkkc0fWu4OdP-20" value="" style="edgeStyle=orthogonalEdgeStyle;rounded=0;orthogonalLoop=1;jettySize=auto;html=1;" edge="1" parent="1" source="g_ZjbpEFmkkc0fWu4OdP-18" target="g_ZjbpEFmkkc0fWu4OdP-12">
          <mxGeometry relative="1" as="geometry" />
        </mxCell>
        <mxCell id="g_ZjbpEFmkkc0fWu4OdP-18" value="hij word weer blij en gaat verder met het verhaal" style="whiteSpace=wrap;html=1;rounded=0;" vertex="1" parent="1">
          <mxGeometry x="360" y="280" width="120" height="60" as="geometry" />
        </mxCell>
        <mxCell id="g_ZjbpEFmkkc0fWu4OdP-24" value="" style="edgeStyle=orthogonalEdgeStyle;rounded=0;orthogonalLoop=1;jettySize=auto;html=1;" edge="1" parent="1" source="g_ZjbpEFmkkc0fWu4OdP-21" target="g_ZjbpEFmkkc0fWu4OdP-23">
          <mxGeometry relative="1" as="geometry" />
        </mxCell>
        <mxCell id="g_ZjbpEFmkkc0fWu4OdP-21" value="hij blijft geirriteerd maar herrinnerd dat je wel goed was de vorige keer" style="whiteSpace=wrap;html=1;rounded=0;" vertex="1" parent="1">
          <mxGeometry x="160" y="420" width="120" height="60" as="geometry" />
        </mxCell>
        <mxCell id="g_ZjbpEFmkkc0fWu4OdP-26" value="" style="edgeStyle=orthogonalEdgeStyle;rounded=0;orthogonalLoop=1;jettySize=auto;html=1;" edge="1" parent="1" source="g_ZjbpEFmkkc0fWu4OdP-23" target="g_ZjbpEFmkkc0fWu4OdP-25">
          <mxGeometry relative="1" as="geometry" />
        </mxCell>
        <mxCell id="g_ZjbpEFmkkc0fWu4OdP-31" value="" style="edgeStyle=orthogonalEdgeStyle;rounded=0;orthogonalLoop=1;jettySize=auto;html=1;" edge="1" parent="1" source="g_ZjbpEFmkkc0fWu4OdP-23" target="g_ZjbpEFmkkc0fWu4OdP-30">
          <mxGeometry relative="1" as="geometry" />
        </mxCell>
        <mxCell id="g_ZjbpEFmkkc0fWu4OdP-23" value="hij wilt je belonen en laat je verder gaan met het verhaal" style="whiteSpace=wrap;html=1;rounded=0;" vertex="1" parent="1">
          <mxGeometry x="360" y="420" width="120" height="60" as="geometry" />
        </mxCell>
        <mxCell id="g_ZjbpEFmkkc0fWu4OdP-27" value="" style="edgeStyle=orthogonalEdgeStyle;rounded=0;orthogonalLoop=1;jettySize=auto;html=1;" edge="1" parent="1" source="g_ZjbpEFmkkc0fWu4OdP-25" target="g_ZjbpEFmkkc0fWu4OdP-12">
          <mxGeometry relative="1" as="geometry" />
        </mxCell>
        <mxCell id="g_ZjbpEFmkkc0fWu4OdP-29" value="" style="edgeStyle=orthogonalEdgeStyle;rounded=0;orthogonalLoop=1;jettySize=auto;html=1;" edge="1" parent="1" source="g_ZjbpEFmkkc0fWu4OdP-25" target="g_ZjbpEFmkkc0fWu4OdP-28">
          <mxGeometry relative="1" as="geometry" />
        </mxCell>
        <mxCell id="g_ZjbpEFmkkc0fWu4OdP-25" value="het verhaal raakt corrupted" style="whiteSpace=wrap;html=1;rounded=0;" vertex="1" parent="1">
          <mxGeometry x="560" y="420" width="120" height="60" as="geometry" />
        </mxCell>
        <mxCell id="g_ZjbpEFmkkc0fWu4OdP-28" value="de pc persoon word corrupted" style="whiteSpace=wrap;html=1;rounded=0;" vertex="1" parent="1">
          <mxGeometry x="560" y="560" width="120" height="60" as="geometry" />
        </mxCell>
        <mxCell id="g_ZjbpEFmkkc0fWu4OdP-38" value="" style="edgeStyle=orthogonalEdgeStyle;rounded=0;orthogonalLoop=1;jettySize=auto;html=1;" edge="1" parent="1" source="g_ZjbpEFmkkc0fWu4OdP-30" target="g_ZjbpEFmkkc0fWu4OdP-37">
          <mxGeometry relative="1" as="geometry" />
        </mxCell>
        <mxCell id="g_ZjbpEFmkkc0fWu4OdP-30" value="&lt;div&gt;&lt;span&gt;je neemt een sollicitatie gesprek voor circusdirecteur voor circus hoteldebotel&lt;/span&gt;&lt;/div&gt;" style="whiteSpace=wrap;html=1;rounded=0;" vertex="1" parent="1">
          <mxGeometry x="360" y="550" width="120" height="70" as="geometry" />
        </mxCell>
        <mxCell id="g_ZjbpEFmkkc0fWu4OdP-40" value="" style="edgeStyle=orthogonalEdgeStyle;rounded=0;orthogonalLoop=1;jettySize=auto;html=1;" edge="1" parent="1" source="g_ZjbpEFmkkc0fWu4OdP-35" target="g_ZjbpEFmkkc0fWu4OdP-39">
          <mxGeometry relative="1" as="geometry" />
        </mxCell>
        <mxCell id="g_ZjbpEFmkkc0fWu4OdP-35" value="hij herrinnerd je als een persoon die hem irriteerde" style="whiteSpace=wrap;html=1;rounded=0;" vertex="1" parent="1">
          <mxGeometry x="760" width="120" height="60" as="geometry" />
        </mxCell>
        <mxCell id="g_ZjbpEFmkkc0fWu4OdP-37" value="true ending 1" style="whiteSpace=wrap;html=1;rounded=0;" vertex="1" parent="1">
          <mxGeometry x="360" y="705" width="120" height="60" as="geometry" />
        </mxCell>
        <mxCell id="g_ZjbpEFmkkc0fWu4OdP-39" value="idk maar hier komt een true ending" style="whiteSpace=wrap;html=1;rounded=0;" vertex="1" parent="1">
          <mxGeometry x="760" y="140" width="120" height="60" as="geometry" />
        </mxCell>
        <mxCell id="g_ZjbpEFmkkc0fWu4OdP-41" value="hij sluit het spel af zodat e je niet meer hoeft te zien" style="whiteSpace=wrap;html=1;rounded=0;" vertex="1" parent="1">
          <mxGeometry x="-240" y="140" width="120" height="60" as="geometry" />
        </mxCell>
      </root>
    </mxGraphModel>
  </diagram>
</mxfile>
